<svg version="1" xmlns="http://www.w3.org/2000/svg" width="314.667" height="314.667" viewBox="0 0 236.000000 236.000000"><path d="M84.1 1.8c.2.9-.1 3.3-.6 5.2-.5 1.9-.9 3.7-1 4-.7 3.6-6.5 19-7.1 19-1.2 0-5.4-2.5-5.4-3.2 0-.5.7-2.3 1.6-4 1.6-3.2.9-3.2-2.8 0-1.6 1.4-2 1.3-3.8-.3-1.1-1-2.2-2.6-2.5-3.6-.4-1.1-1-1.9-1.5-1.9s-.7.6-.5 1.2c.2.7.7 3.1 1 5.2.8 6 1.6 8.6 2.6 8.6.5 0 .9.5.9 1.1 0 .6.9 2.2 1.9 3.6 1.1 1.3 1.7 3.1 1.4 3.9-.3.8.3 2.5 1.4 3.7 1.2 1.2 2.8 4 3.8 6.2.9 2.2 2.3 5.5 3.1 7.4 1.4 3.1 1.3 3.5-.5 5.2-1.1 1.1-1.8 2.5-1.6 3.2.3.6-1 2.2-2.7 3.4-5.1 3.5-10.3 8.4-10 9.4.1.5-.2.8-.7.7-1.2-.4-9.2 9.7-13.3 16.8-3.2 5.4-5.6 11.1-5.9 13.9-.1.5-.5 2-1 3.2-1.2 3.1-2.3 13.5-2.3 21.3.1 13.4 2.3 23.6 7.5 34.3 1.6 3.3 2.9 6.2 2.9 6.3 0 .1-1.6.2-3.5.2-4.8 0-12.3 3.8-14 7.3-1.8 3.3-2.1 24.9-.5 28 2.4 4.4 7.8 5.6 28 6.4 14.3.5 17.6 1.4 28.1 7.9 22.8 14.2 39.1 14.1 63.6-.3 5.4-3.3 11.5-6.2 13.4-6.5 1.9-.3 4.7-.8 6.3-1.1 1.6-.2 8.1-.5 14.5-.6 12.2-.1 16.3-1.1 20-4.8 1.9-1.9 2.1-3.3 2.1-14.1 0-7.8-.4-12.8-1.2-14.3-2.9-5.1-7.7-7.7-14.7-8.1-2.2-.2-4.2-3.6-2.1-3.6.4 0 1.1-1 1.5-2.2.4-1.3.8-2.5 1-2.8.1-.3.5-1.3.9-2.2.4-.9.9-2.2 1-3 .2-.7.8-2.5 1.4-3.9 4.4-10.9 4-34.1-1.1-48.9-1.9-5.9-8.7-18.2-12.6-23-5-6.2-14.1-14.9-17.3-16.6-1.6-.8-2.8-2.3-2.8-3.3s-.7-2.4-1.5-3.1c-2-1.6-1.9-2.8.6-8 1.2-2.4 2.2-5 2.3-5.7.1-.7 1.2-2.5 2.4-4 1.9-2.3 2.5-4.8 2.1-8 0-.3.6-1 1.5-1.5 2.6-1.5 4.6-6.4 5.5-13.4.8-6.5.7-6.6-1-4.3-1.9 2.4-2.3 3.6-1.9 5.4.1.5-.2.7-.6.3-.4-.4-1.3-.3-2 .3-.8.7-1.4.6-2-.2-.5-.8-.3-1 .7-.4 1 .5 1.1.5.4-.2-.5-.6-2-1.4-3.3-1.8-2-.6-2.1-.4-1.2 2 1.4 3.8 1.3 4.9-1.1 6.3-1.9 1.2-2.1 1-3.6-2.8-.9-2.2-1.9-4-2.2-4-.3 0-.7-1-.8-2.3 0-1.2-.7-3.6-1.4-5.2-.6-1.7-1.3-3.5-1.4-4-.4-3.3-1.9-9.2-2.5-10.3-.5-1-1.5-.2-3.5 2.4C143.1 8 129 22 127.9 22c-.3 0-1.4-1.2-2.4-2.6-1.4-2.2-1.5-2.8-.2-4.2 3.1-3.6 2.9-4.1-1.1-3.6-3.7.4-4 .3-5.4-3.3l-1.4-3.8-1.5 3.8c-1.3 3.8-1.5 3.9-5.1 3.3-2.3-.4-3.8-.2-3.8.4 0 .5.3 1 .8 1 .4 0 1.3 1.2 1.9 2.7 1.1 2.2 1 2.9-.4 4.5-.9 1-2 1.8-2.4 1.8C105.8 22 87 3.2 87 2.1c0-.5-.7-1.2-1.6-1.5-1-.4-1.4-.1-1.3 1.2z"/></svg>